# xmcd
#
# Track frame offsets:
#	150
#	21027
#	37660
#	56053
#	70772
#	89365
#	103818
#	119687
#	135948
#	149615
#	166108
#	183940
#	199054
#	219811
#	240219
#
# Disc length: 3579 seconds
#
# Revision: 5
# Processed by: cddbd v1.5.2PL0 Copyright (c) Steve Scherf et al.
# Submitted via: EasyCDDAExtractor 15.3.0.1
#
DISCID=c40df90f
DTITLE=RBD - Rebels
DYEAR=2006
DGENRE=Pop
TTITLE0=Tu Amor
TTITLE1=Wanna Play
TTITLE2=My Philosophy
TTITLE3=Connected
TTITLE4=I Wanna Be The Rain
TTITLE5=Cariño Mio
TTITLE6=Era La Musica
TTITLE7=Keep It Down Low
TTITLE8=Happy Worst Day
TTITLE9=This Is Love
TTITLE10=Save Me
TTITLE11=Money Money (Spanish Language Bonus Track)
TTITLE12=Tu Amor (Navidad Mix)
TTITLE13=Celestial
TTITLE14=Data
EXTD=
EXTT0=
EXTT1=
EXTT2=
EXTT3=
EXTT4=
EXTT5=
EXTT6=
EXTT7=
EXTT8=
EXTT9=
EXTT10=
EXTT11=
EXTT12=
EXTT13=
EXTT14=
PLAYORDER=
